<svg xmlns="http://www.w3.org/2000/svg" width="1079.55" height="609.55"><defs><style>.a{fill:#d40f7e}</style></defs><path class="a" d="M252.22 461.38c-3.1 40.59-22.93 81.17-70.59 81.17-54.92 0-60.92-88.9-64.14-136.66l-1.07-14.6.34-7.21C118.5 344.4 122.57 251.5 180 251.5c41 0 66.89 28 70.55 75.35h106.6c-1.44-36.23-14.66-68.09-38.79-92.42-31.74-32-80.3-49.64-136.73-49.64C59.71 184.79 4.18 294.81 4.18 397s55.53 212.28 177.45 212.28c54.9 0 97.92-13.53 127.88-40.21 28.14-25.05 43.92-61.34 47.29-107.68z"/><path class="a" d="M414.2 264.67v60.69c0 24.47 13.65 32.93 38.11 32.93 37.17 0 66.34-18.34 77.16-55L540.3 307c-12.24 43.75-47.52 63.52-91.28 63.52-58.34 0-111-32.94-111-96.93s56.46-99.27 110.09-99.27c46.58 0 91.27 32.47 91.27 81.39 0 11.29-14.58 8.93-22.11 8.93h-103zm61.63-12.23v-46.11c0-12.23-10.35-19.76-32.93-19.76-20.23 0-28.7 8.94-28.7 21.65v44.22zm59.65 312.16c0 29 18 44.95 50.76 44.95 14.07 0 29.4-1 46.35-7.77-.44-4.5-2.76-28.2-3.41-34.81a78.1 78.1 0 01-12.3.7c-13.73 0-21.29-8.44-21.29-23.77 0-9 2.3-21.64 4.24-30.63l78.67-368.55c7-32.21 12.07-70.68 12.07-102.85 0-16.06-1.28-30.52-4.22-41.87l-61.52 23.72c3.17 12.74 4.78 27.78 4.78 44.62 0 23.14-3 49.62-8.92 78 0 0-81.16 383.44-81.14 383.36-2.85 15.22-4.07 25.66-4.07 34.9zM921.88 45L755.61 309.69c-28 44.67-45.74 74.27-45.74 92.57 0 9.15 3.76 14.52 11.84 14.52 15.06 0 43-17.75 72.09-46.8 26.91-26.91 53.82-58.66 79.1-91.48l4.84 1.61c-17.75 23.67-45.2 58.65-69.42 83.4-42 42.51-70.48 63-104.92 63-24.21 0-36.58-10.76-36.58-32.28 0-19.91 14.53-48.43 45.19-99.55L862.13 48.19z"/><path class="a" d="M969.36 174.1q49.13 0 79.65 27.48t30.54 70.51q0 43.23-30.54 70.72t-79.65 27.47q-48.95 0-79.47-27.47t-30.52-70.72q0-43 30.63-70.51t79.36-27.48zm0 42.44q-23.57 0-38.76 15.52t-15.19 39.63q0 24.33 15.19 40.24t38.76 15.92q23.53 0 38.85-15.92t15.29-40.24q0-24.12-15.2-39.63t-38.94-15.52z"/><circle class="a" cx="11.02" cy="85" r="11.02"/><circle class="a" cx="76.87" cy="85" r="11.02"/><circle class="a" cx="142.71" cy="85" r="11.02" transform="rotate(-80.78 142.716 84.997)"/><circle class="a" cx="208.55" cy="85" r="11.02"/><circle class="a" cx="274.39" cy="85" r="11.02"/><circle class="a" cx="340.23" cy="85" r="11.02"/><circle class="a" cx="406.07" cy="85" r="11.02" transform="rotate(-67.6 407.6 85.536)"/><circle class="a" cx="471.92" cy="85" r="11.02"/><circle class="a" cx="537.76" cy="85" r="11.02"/><circle class="a" cx="603.6" cy="85" r="11.02"/><circle class="a" cx="735.28" cy="85" r="11.02"/><circle class="a" cx="801.13" cy="85" r="11.02"/><circle class="a" cx="932.81" cy="85" r="11.02"/><circle class="a" cx="998.65" cy="85" r="11.02"/><circle class="a" cx="1064.49" cy="85" r="11.02"/></svg>